{"title":"Noite.e.Dia.3.em.1.Sertanejo.(2011).DvdRip.CoGuMaS.(@2.400kbps)","uid":7210596,"size":1977440988,"categoryP":"video","categoryS":"music_videos","magnet":"?xt=urn:btih:47dca968d2a051e5b39b76bbccac53c8b35461a7&amp;dn=Noite.e.Dia.3.em.1.Sertanejo.%282011%29.DvdRip.CoGuMaS.%28%402.400kbps%29&amp;tr=udp%3A%2F%2Ftracker.openbittorrent.com%3A80&amp;tr=udp%3A%2F%2Fopen.demonii.com%3A1337&amp;tr=udp%3A%2F%2Ftracker.coppersurfer.tk%3A6969&amp;tr=udp%3A%2F%2Fexodus.desync.com%3A6969","seeders":1,"leechers":1,"uploader":"Cogumas","files":-1,"time":1335225422,"description":"General\nComplete name                    : D:VideosShows RipNoite e Dia - 3 em 1 Sertanejo (2011) DvdRip CoGuMaS.avi\nFormat                           : AVI\nFormat/Info                      : Audio Video Interleave\nFormat profile                   : OpenDML\nFile size                        : 1.84 GiB\nDuration                         : 1h 32mn\nOverall bit rate                 : 2 852 Kbps\nWriting application              : MEncoder SVN-r30881(20100311-gcc4.3.3)\nWriting library                  : MPlayer\n\nVideo\nID                               : 0\nFormat                           : MPEG-4 Visual\nFormat profile                   : Advanced Simple@L5\nFormat settings, BVOP            : 2\nFormat settings, QPel            : No\nFormat settings, GMC             : No warppoints\nFormat settings, Matrix          : Default (H.263)\nCodec ID                         : XVID\nCodec ID/Hint                    : XviD\nDuration                         : 1h 32mn\nBit rate                         : 2 399 Kbps\nWidth                            : 720 pixels\nHeight                           : 480 pixels\nDisplay aspect ratio             : 16:9\nFrame rate                       : 24.000 fps\nStandard                         : NTSC\nColor space                      : YUV\nChroma subsampling               : 4:2:0\nBit depth                        : 8 bits\nScan type                        : Progressive\nCompression mode                 : Lossy\nBits/(Pixel*Frame)               : 0.289\nStream size                      : 1.55 GiB (84%)\nWriting library                  : XviD 1.2.1 (UTC 2008-12-04)\n\nAudio\nID                               : 1\nFormat                           : AC-3\nFormat/Info                      : Audio Coding 3\nMode extension                   : CM (complete main)\nCodec ID                         : 2000\nDuration                         : 1h 32mn\nBit rate mode                    : Constant\nBit rate                         : 448 Kbps\nChannel(s)                       : 6 channels\nChannel positions                : Front: L C R, Side: L R, LFE\nSampling rate                    : 48.0 KHz\nBit depth                        : 16 bits\nCompression mode                 : Lossy\nDelay relative to video          : 42ms\nStream size                      : 296 MiB (16%)\nAlignment                        : Split accross interleaves\nInterleave, duration             : 500 ms (12.00 video frames)\nInterleave, preload duration     : 500 ms\n\n\nCOMENTEM E APROVEITEM!!! ENJOY IT!!!","torrent":{"xt":"urn:btih:47dca968d2a051e5b39b76bbccac53c8b35461a7","amp;dn":"Noite.e.Dia.3.em.1.Sertanejo.%282011%29.DvdRip.CoGuMaS.%28%402.400kbps%29","amp;tr":["udp%3A%2F%2Ftracker.openbittorrent.com%3A80","udp%3A%2F%2Fopen.demonii.com%3A1337","udp%3A%2F%2Ftracker.coppersurfer.tk%3A6969","udp%3A%2F%2Fexodus.desync.com%3A6969"],"infoHash":"47dca968d2a051e5b39b76bbccac53c8b35461a7","infoHashBuffer":{"type":"Buffer","data":[71,220,169,104,210,160,81,229,179,155,118,187,204,172,83,200,179,84,97,167]},"announce":[],"urlList":[]}}